<?xml version="1.0" encoding="UTF-8"?>
<!-- Generated by Pixelmator Pro 3.0.1 -->
<svg width="20000" height="1604" viewBox="0 0 20000 1604" xmlns="http://www.w3.org/2000/svg" xmlns:xlink="http://www.w3.org/1999/xlink">
    <path id="Rectangle" fill="#ffffff" fill-rule="evenodd" stroke="none" d="M 0 1604 L 20000 1604 L 20000 0 L 0 0 Z"/>
    <text id="Eindhoven-University-of-Technology" xml:space="preserve" x="9343" y="598" font-family="Courier New" font-size="512.640035" font-weight="700" fill="#f00000">Eindhoven University of Technology</text>
    <text id="October-22-2022" xml:space="preserve" x="9343" y="1313" font-family="Courier New" font-size="384.480026" fill="#f00000">October 22, 2022</text>
    <g id="2022">
        <g id="Group">
            <g id="g1">
                <g id="g2">
                    <path id="Path" fill="#f5f5f5" stroke="none" visibility="hidden" d="M 4773.736816 80.199951 L 4733.958008 120.078491 L 4853.294922 239.713867 L 5072.07959 239.713867 L 5072.07959 120.078491 L 5032.300781 80.199951 L 4773.736816 80.199951 Z"/>
                    <path id="path1" fill="#f5f5f5" stroke="none" visibility="hidden" d="M 5111.858398 239.713867 L 5330.643066 239.713867 L 5449.97998 120.078491 L 5410.201172 80.199951 L 5151.637695 80.199951 L 5111.858398 120.078491 L 5111.858398 239.713867 Z"/>
                    <path id="path2" fill="#f5f5f5" stroke="none" visibility="hidden" d="M 5370.421875 279.592285 L 5489.759277 159.956909 L 5529.538086 199.835327 L 5529.538086 678.37677 L 5489.759277 758.133728 L 5370.421875 678.37677 L 5370.421875 279.592285 Z"/>
                    <path id="path3" fill="#f5f5f5" stroke="none" d="M 5370.421875 917.647522 L 5489.759277 837.890625 L 5529.538086 917.647522 L 5529.538086 1396.188965 L 5489.759277 1436.067383 L 5370.421875 1316.432007 L 5370.421875 917.647522 Z"/>
                    <path id="path4" fill="#f5f5f5" stroke="none" visibility="hidden" d="M 4853.294922 1356.310547 L 5072.07959 1356.310547 L 5072.07959 1475.945801 L 5032.300781 1515.824341 L 4773.736816 1515.824341 L 4733.958008 1475.945801 L 4853.294922 1356.310547 Z"/>
                    <path id="path5" fill="#f5f5f5" stroke="none" visibility="hidden" d="M 5111.858398 1356.310547 L 5330.643066 1356.310547 L 5449.97998 1475.945801 L 5410.201172 1515.824341 L 5151.637695 1515.824341 L 5111.858398 1475.945801 L 5111.858398 1356.310547 Z"/>
                    <path id="path6" fill="#f5f5f5" stroke="none" visibility="hidden" d="M 4694.179199 1436.067383 L 4654.399902 1396.188965 L 4654.399902 917.647522 L 4694.179199 837.890625 L 4813.516113 917.647522 L 4813.516113 1316.432007 L 4694.179199 1436.067383 Z"/>
                    <path id="path7" fill="#f5f5f5" stroke="none" d="M 4694.179199 758.133728 L 4654.399902 678.37677 L 4654.399902 199.835327 L 4694.179199 159.956909 L 4813.516113 279.592285 L 4813.516113 678.37677 L 4694.179199 758.133728 Z"/>
                    <path id="path8" fill="#f5f5f5" stroke="none" visibility="hidden" d="M 4694.179199 798.012146 L 4853.294922 718.255249 L 5072.07959 718.255249 L 5072.07959 877.769043 L 4853.294922 877.769043 L 4694.179199 798.012146 Z"/>
                    <path id="path9" fill="#f5f5f5" stroke="none" visibility="hidden" d="M 5489.759277 798.012146 L 5330.643066 877.769043 L 5111.858398 877.769043 L 5111.858398 718.255249 L 5330.643066 718.255249 L 5489.759277 798.012146 Z"/>
                    <path id="path10" fill="#f5f5f5" stroke="none" d="M 4853.294922 279.592285 L 4912.963379 279.592285 L 4972.631836 399.227661 L 5052.189941 678.37677 L 4992.521484 678.37677 L 4853.294922 478.984497 L 4853.294922 279.592285 Z"/>
                    <path id="path11" fill="#f5f5f5" stroke="none" d="M 5151.637695 279.592285 L 5151.637695 399.227661 L 5091.969238 678.37677 L 5032.300781 399.227661 L 5032.300781 279.592285 L 5151.637695 279.592285 Z"/>
                    <path id="path12" fill="#f5f5f5" stroke="none" d="M 5211.306152 399.227661 L 5270.974609 279.592285 L 5330.643066 279.592285 L 5330.643066 478.984497 L 5191.416504 678.37677 L 5131.748047 678.37677 L 5211.306152 399.227661 Z"/>
                    <path id="path13" fill="#f5f5f5" stroke="none" d="M 4992.521484 917.647522 L 5052.189941 917.647522 L 4972.631836 1196.796631 L 4912.963379 1316.432007 L 4853.294922 1316.432007 L 4853.294922 1117.039795 L 4992.521484 917.647522 Z"/>
                    <path id="path14" fill="#f5f5f5" stroke="none" d="M 5091.969238 917.647522 L 5151.637695 1196.796631 L 5151.637695 1316.432007 L 5032.300781 1316.432007 L 5032.300781 1196.796631 L 5091.969238 917.647522 Z"/>
                    <path id="path15" fill="#f5f5f5" stroke="none" d="M 5131.748047 917.647522 L 5191.416504 917.647522 L 5330.643066 1117.039795 L 5330.643066 1316.432007 L 5270.974609 1316.432007 L 5211.306152 1196.796631 L 5131.748047 917.647522 Z"/>
                    <path id="path16" fill="#f5f5f5" stroke="none" d="M 5537.494141 1475.945801 C 5537.494141 1460.528809 5525.027344 1448.031006 5509.648438 1448.031006 C 5494.27002 1448.031006 5481.803223 1460.528809 5481.803223 1475.945801 C 5481.803223 1491.362793 5494.27002 1503.860718 5509.648438 1503.860718 C 5525.027344 1503.860718 5537.494141 1491.362793 5537.494141 1475.945801 Z"/>
                </g>
            </g>
        </g>
        <g id="g3">
            <g id="g4">
                <g id="g5">
                    <path id="path17" fill="#f5f5f5" stroke="none" visibility="hidden" d="M 7083.584473 80.199951 L 7043.805664 120.078491 L 7163.142578 239.713867 L 7381.927246 239.713867 L 7381.927246 120.078491 L 7342.147949 80.199951 L 7083.584473 80.199951 Z"/>
                    <path id="path18" fill="#f5f5f5" stroke="none" visibility="hidden" d="M 7421.706055 239.713867 L 7640.490723 239.713867 L 7759.827637 120.078491 L 7720.04834 80.199951 L 7461.484863 80.199951 L 7421.706055 120.078491 L 7421.706055 239.713867 Z"/>
                    <path id="path19" fill="#f5f5f5" stroke="none" visibility="hidden" d="M 7680.269531 279.592285 L 7799.606445 159.956909 L 7839.385742 199.835327 L 7839.385742 678.37677 L 7799.606445 758.133728 L 7680.269531 678.37677 L 7680.269531 279.592285 Z"/>
                    <path id="path20" fill="#f5f5f5" stroke="none" d="M 7680.269531 917.647522 L 7799.606445 837.890625 L 7839.385742 917.647522 L 7839.385742 1396.188965 L 7799.606445 1436.067383 L 7680.269531 1316.432007 L 7680.269531 917.647522 Z"/>
                    <path id="path21" fill="#f5f5f5" stroke="none" visibility="hidden" d="M 7163.142578 1356.310547 L 7381.927246 1356.310547 L 7381.927246 1475.945801 L 7342.147949 1515.824341 L 7083.584473 1515.824341 L 7043.805664 1475.945801 L 7163.142578 1356.310547 Z"/>
                    <path id="path22" fill="#f5f5f5" stroke="none" visibility="hidden" d="M 7421.706055 1356.310547 L 7640.490723 1356.310547 L 7759.827637 1475.945801 L 7720.04834 1515.824341 L 7461.484863 1515.824341 L 7421.706055 1475.945801 L 7421.706055 1356.310547 Z"/>
                    <path id="path23" fill="#f5f5f5" stroke="none" visibility="hidden" d="M 7004.026367 1436.067383 L 6964.247559 1396.188965 L 6964.247559 917.647522 L 7004.026367 837.890625 L 7123.363281 917.647522 L 7123.363281 1316.432007 L 7004.026367 1436.067383 Z"/>
                    <path id="path24" fill="#f5f5f5" stroke="none" d="M 7004.026367 758.133728 L 6964.247559 678.37677 L 6964.247559 199.835327 L 7004.026367 159.956909 L 7123.363281 279.592285 L 7123.363281 678.37677 L 7004.026367 758.133728 Z"/>
                    <path id="path25" fill="#f5f5f5" stroke="none" visibility="hidden" d="M 7004.026367 798.012146 L 7163.142578 718.255249 L 7381.927246 718.255249 L 7381.927246 877.769043 L 7163.142578 877.769043 L 7004.026367 798.012146 Z"/>
                    <path id="path26" fill="#f5f5f5" stroke="none" visibility="hidden" d="M 7799.606445 798.012146 L 7640.490723 877.769043 L 7421.706055 877.769043 L 7421.706055 718.255249 L 7640.490723 718.255249 L 7799.606445 798.012146 Z"/>
                    <path id="path27" fill="#f5f5f5" stroke="none" d="M 7163.142578 279.592285 L 7222.811035 279.592285 L 7282.479492 399.227661 L 7362.037598 678.37677 L 7302.369141 678.37677 L 7163.142578 478.984497 L 7163.142578 279.592285 Z"/>
                    <path id="path28" fill="#f5f5f5" stroke="none" d="M 7461.484863 279.592285 L 7461.484863 399.227661 L 7401.816406 678.37677 L 7342.147949 399.227661 L 7342.147949 279.592285 L 7461.484863 279.592285 Z"/>
                    <path id="path29" fill="#f5f5f5" stroke="none" d="M 7521.15332 399.227661 L 7580.822266 279.592285 L 7640.490723 279.592285 L 7640.490723 478.984497 L 7501.26416 678.37677 L 7441.595703 678.37677 L 7521.15332 399.227661 Z"/>
                    <path id="path30" fill="#f5f5f5" stroke="none" d="M 7302.369141 917.647522 L 7362.037598 917.647522 L 7282.479492 1196.796631 L 7222.811035 1316.432007 L 7163.142578 1316.432007 L 7163.142578 1117.039795 L 7302.369141 917.647522 Z"/>
                    <path id="path31" fill="#f5f5f5" stroke="none" d="M 7401.816406 917.647522 L 7461.484863 1196.796631 L 7461.484863 1316.432007 L 7342.147949 1316.432007 L 7342.147949 1196.796631 L 7401.816406 917.647522 Z"/>
                    <path id="path32" fill="#f5f5f5" stroke="none" d="M 7441.595703 917.647522 L 7501.26416 917.647522 L 7640.490723 1117.039795 L 7640.490723 1316.432007 L 7580.822266 1316.432007 L 7521.15332 1196.796631 L 7441.595703 917.647522 Z"/>
                    <path id="path33" fill="#f5f5f5" stroke="none" d="M 7847.341309 1475.945801 C 7847.341309 1460.528809 7834.874512 1448.031006 7819.496094 1448.031006 C 7804.117676 1448.031006 7791.650879 1460.528809 7791.650879 1475.945801 C 7791.650879 1491.362793 7804.117676 1503.860718 7819.496094 1503.860718 C 7834.874512 1503.860718 7847.341309 1491.362793 7847.341309 1475.945801 Z"/>
                </g>
            </g>
        </g>
        <g id="g6">
            <g id="g7">
                <g id="g8">
                    <path id="path34" fill="#f5f5f5" stroke="none" visibility="hidden" d="M 8238.488281 80.199951 L 8198.708984 120.078491 L 8318.046875 239.713867 L 8536.831055 239.713867 L 8536.831055 120.078491 L 8497.051758 80.199951 L 8238.488281 80.199951 Z"/>
                    <path id="path35" fill="#f5f5f5" stroke="none" visibility="hidden" d="M 8576.610352 239.713867 L 8795.394531 239.713867 L 8914.731445 120.078491 L 8874.952148 80.199951 L 8616.388672 80.199951 L 8576.610352 120.078491 L 8576.610352 239.713867 Z"/>
                    <path id="path36" fill="#f5f5f5" stroke="none" visibility="hidden" d="M 8835.173828 279.592285 L 8954.510742 159.956909 L 8994.289063 199.835327 L 8994.289063 678.37677 L 8954.510742 758.133728 L 8835.173828 678.37677 L 8835.173828 279.592285 Z"/>
                    <path id="path37" fill="#f5f5f5" stroke="none" d="M 8835.173828 917.647522 L 8954.510742 837.890625 L 8994.289063 917.647522 L 8994.289063 1396.188965 L 8954.510742 1436.067383 L 8835.173828 1316.432007 L 8835.173828 917.647522 Z"/>
                    <path id="path38" fill="#f5f5f5" stroke="none" visibility="hidden" d="M 8318.046875 1356.310547 L 8536.831055 1356.310547 L 8536.831055 1475.945801 L 8497.051758 1515.824341 L 8238.488281 1515.824341 L 8198.708984 1475.945801 L 8318.046875 1356.310547 Z"/>
                    <path id="path39" fill="#f5f5f5" stroke="none" visibility="hidden" d="M 8576.610352 1356.310547 L 8795.394531 1356.310547 L 8914.731445 1475.945801 L 8874.952148 1515.824341 L 8616.388672 1515.824341 L 8576.610352 1475.945801 L 8576.610352 1356.310547 Z"/>
                    <path id="path40" fill="#f5f5f5" stroke="none" visibility="hidden" d="M 8158.930176 1436.067383 L 8119.151367 1396.188965 L 8119.151367 917.647522 L 8158.930176 837.890625 L 8278.267578 917.647522 L 8278.267578 1316.432007 L 8158.930176 1436.067383 Z"/>
                    <path id="path41" fill="#f5f5f5" stroke="none" d="M 8158.930176 758.133728 L 8119.151367 678.37677 L 8119.151367 199.835327 L 8158.930176 159.956909 L 8278.267578 279.592285 L 8278.267578 678.37677 L 8158.930176 758.133728 Z"/>
                    <path id="path42" fill="#f5f5f5" stroke="none" visibility="hidden" d="M 8158.930176 798.012146 L 8318.046875 718.255249 L 8536.831055 718.255249 L 8536.831055 877.769043 L 8318.046875 877.769043 L 8158.930176 798.012146 Z"/>
                    <path id="path43" fill="#f5f5f5" stroke="none" visibility="hidden" d="M 8954.510742 798.012146 L 8795.394531 877.769043 L 8576.610352 877.769043 L 8576.610352 718.255249 L 8795.394531 718.255249 L 8954.510742 798.012146 Z"/>
                    <path id="path44" fill="#f5f5f5" stroke="none" d="M 8318.046875 279.592285 L 8377.714844 279.592285 L 8437.383789 399.227661 L 8516.941406 678.37677 L 8457.272461 678.37677 L 8318.046875 478.984497 L 8318.046875 279.592285 Z"/>
                    <path id="path45" fill="#f5f5f5" stroke="none" d="M 8616.388672 279.592285 L 8616.388672 399.227661 L 8556.720703 678.37677 L 8497.051758 399.227661 L 8497.051758 279.592285 L 8616.388672 279.592285 Z"/>
                    <path id="path46" fill="#f5f5f5" stroke="none" d="M 8676.057617 399.227661 L 8735.725586 279.592285 L 8795.394531 279.592285 L 8795.394531 478.984497 L 8656.167969 678.37677 L 8596.499023 678.37677 L 8676.057617 399.227661 Z"/>
                    <path id="path47" fill="#f5f5f5" stroke="none" d="M 8457.272461 917.647522 L 8516.941406 917.647522 L 8437.383789 1196.796631 L 8377.714844 1316.432007 L 8318.046875 1316.432007 L 8318.046875 1117.039795 L 8457.272461 917.647522 Z"/>
                    <path id="path48" fill="#f5f5f5" stroke="none" d="M 8556.720703 917.647522 L 8616.388672 1196.796631 L 8616.388672 1316.432007 L 8497.051758 1316.432007 L 8497.051758 1196.796631 L 8556.720703 917.647522 Z"/>
                    <path id="path49" fill="#f5f5f5" stroke="none" d="M 8596.499023 917.647522 L 8656.167969 917.647522 L 8795.394531 1117.039795 L 8795.394531 1316.432007 L 8735.725586 1316.432007 L 8676.057617 1196.796631 L 8596.499023 917.647522 Z"/>
                    <path id="path50" fill="#f5f5f5" stroke="none" d="M 9002.245117 1475.945801 C 9002.245117 1460.528809 8989.77832 1448.031006 8974.400391 1448.031006 C 8959.021484 1448.031006 8946.554688 1460.528809 8946.554688 1475.945801 C 8946.554688 1491.362793 8959.021484 1503.860718 8974.400391 1503.860718 C 8989.77832 1503.860718 9002.245117 1491.362793 9002.245117 1475.945801 Z"/>
                </g>
            </g>
        </g>
        <g id="g9">
            <path id="sA1-8" fill="#f5f5f5" stroke="none" visibility="hidden" d="M 6187.084961 88.175659 L 6226.864258 128.054199 L 6226.864258 247.689453 L 6008.07959 247.689453 L 5888.742676 128.054199 L 5928.521484 88.175659 L 6187.084961 88.175659 Z"/>
            <path id="sA2-8" fill="#f5f5f5" stroke="none" visibility="hidden" d="M 6266.643066 128.054199 L 6306.421875 88.175659 L 6564.985352 88.175659 L 6604.764648 128.054199 L 6485.427734 247.689453 L 6266.643066 247.689453 L 6266.643066 128.054199 Z"/>
            <path id="sB-8" fill="#f5f5f5" stroke="none" visibility="hidden" d="M 6525.206543 686.352478 L 6644.543457 766.109375 L 6684.322754 686.352478 L 6684.322754 207.811035 L 6644.543457 167.932617 L 6525.206543 287.567993 L 6525.206543 686.352478 Z"/>
            <path id="sC-8" fill="#f5f5f5" stroke="none" visibility="hidden" d="M 6525.206543 1324.407715 L 6644.543457 1444.043091 L 6684.322754 1404.164673 L 6684.322754 925.62323 L 6644.543457 845.866272 L 6525.206543 925.62323 L 6525.206543 1324.407715 Z"/>
            <path id="sD1-8" fill="#f5f5f5" stroke="none" visibility="hidden" d="M 5888.742676 1483.921509 L 5928.521484 1523.800049 L 6187.084961 1523.800049 L 6226.864258 1483.921509 L 6226.864258 1364.286133 L 6008.07959 1364.286133 L 5888.742676 1483.921509 Z"/>
            <path id="sD2-8" fill="#f5f5f5" stroke="none" visibility="hidden" d="M 6266.643066 1483.921509 L 6306.421875 1523.800049 L 6564.985352 1523.800049 L 6604.764648 1483.921509 L 6485.427734 1364.286133 L 6266.643066 1364.286133 L 6266.643066 1483.921509 Z"/>
            <path id="sE-8" fill="#f5f5f5" stroke="none" visibility="hidden" d="M 5968.300293 1324.407715 L 5968.300293 925.62323 L 5848.963379 845.866272 L 5809.18457 925.62323 L 5809.18457 1404.164673 L 5848.963379 1444.043091 L 5968.300293 1324.407715 Z"/>
            <path id="sF-8" fill="#f5f5f5" stroke="none" visibility="hidden" d="M 5848.963379 766.109375 L 5968.300293 686.352478 L 5968.300293 287.567993 L 5848.963379 167.932617 L 5809.18457 207.811035 L 5809.18457 686.352478 L 5848.963379 766.109375 Z"/>
            <path id="sG1-8" fill="#f5f5f5" stroke="none" d="M 6008.07959 885.744751 L 6226.864258 885.744751 L 6226.864258 726.230957 L 6008.07959 726.230957 L 5848.963379 805.987854 L 6008.07959 885.744751 Z"/>
            <path id="sG2-8" fill="#f5f5f5" stroke="none" d="M 6485.427734 726.230957 L 6266.643066 726.230957 L 6266.643066 885.744751 L 6485.427734 885.744751 L 6644.543457 805.987854 L 6485.427734 726.230957 Z"/>
            <path id="sH-8" fill="#f5f5f5" stroke="none" d="M 6008.07959 486.960205 L 6147.306152 686.352478 L 6206.974609 686.352478 L 6127.416504 407.203369 L 6067.748047 287.567993 L 6008.07959 287.567993 L 6008.07959 486.960205 Z"/>
            <path id="sI-8" fill="#f5f5f5" stroke="none" d="M 6187.084961 287.567993 L 6187.084961 407.203369 L 6246.753418 686.352478 L 6306.421875 407.203369 L 6306.421875 287.567993 L 6187.084961 287.567993 Z"/>
            <path id="sJ-8" fill="#f5f5f5" stroke="none" visibility="hidden" d="M 6286.532715 686.352478 L 6346.201172 686.352478 L 6485.427734 486.960205 L 6485.427734 287.567993 L 6425.759277 287.567993 L 6366.090332 407.203369 L 6286.532715 686.352478 Z"/>
            <path id="sK-8" fill="#f5f5f5" stroke="none" visibility="hidden" d="M 6008.07959 1125.015503 L 6008.07959 1324.407715 L 6067.748047 1324.407715 L 6127.416504 1204.772339 L 6206.974609 925.62323 L 6147.306152 925.62323 L 6008.07959 1125.015503 Z"/>
            <path id="sL-8" fill="#f5f5f5" stroke="none" d="M 6187.084961 1204.772339 L 6187.084961 1324.407715 L 6306.421875 1324.407715 L 6306.421875 1204.772339 L 6246.753418 925.62323 L 6187.084961 1204.772339 Z"/>
            <path id="sM-8" fill="#f5f5f5" stroke="none" d="M 6366.090332 1204.772339 L 6425.759277 1324.407715 L 6485.427734 1324.407715 L 6485.427734 1125.015503 L 6346.201172 925.62323 L 6286.532715 925.62323 L 6366.090332 1204.772339 Z"/>
            <path id="sDP-8" fill="#f5f5f5" stroke="none" d="M 6669.071777 1456.519043 C 6684.251953 1458.98877 6694.561035 1473.327637 6692.097168 1488.545776 C 6689.633789 1503.763794 6675.330566 1514.098389 6660.150391 1511.628662 C 6644.970215 1509.158813 6634.661621 1494.819824 6637.125 1479.601807 C 6639.588867 1464.383789 6653.89209 1454.049194 6669.071777 1456.519043 Z"/>
        </g>
        <g id="g10">
            <g id="g11">
                <g id="g12">
                    <path id="path51" fill="#f00000" stroke="none" d="M 4773.736816 80.199951 L 4733.958008 120.078491 L 4853.294922 239.713867 L 5072.07959 239.713867 L 5072.07959 120.078491 L 5032.300781 80.199951 L 4773.736816 80.199951 Z"/>
                    <path id="path52" fill="#f00000" stroke="none" d="M 5111.858398 239.713867 L 5330.643066 239.713867 L 5449.97998 120.078491 L 5410.201172 80.199951 L 5151.637695 80.199951 L 5111.858398 120.078491 L 5111.858398 239.713867 Z"/>
                    <path id="path53" fill="#f00000" stroke="none" d="M 5370.421875 279.592285 L 5489.759277 159.956909 L 5529.538086 199.835327 L 5529.538086 678.37677 L 5489.759277 758.133728 L 5370.421875 678.37677 L 5370.421875 279.592285 Z"/>
                    <path id="path54" fill="#f00000" stroke="none" d="M 4853.294922 1356.310547 L 5072.07959 1356.310547 L 5072.07959 1475.945801 L 5032.300781 1515.824341 L 4773.736816 1515.824341 L 4733.958008 1475.945801 L 4853.294922 1356.310547 Z"/>
                    <path id="path55" fill="#f00000" stroke="none" d="M 5111.858398 1356.310547 L 5330.643066 1356.310547 L 5449.97998 1475.945801 L 5410.201172 1515.824341 L 5151.637695 1515.824341 L 5111.858398 1475.945801 L 5111.858398 1356.310547 Z"/>
                    <path id="path56" fill="#f00000" stroke="none" d="M 4694.179199 1436.067383 L 4654.399902 1396.188965 L 4654.399902 917.647522 L 4694.179199 837.890625 L 4813.516113 917.647522 L 4813.516113 1316.432007 L 4694.179199 1436.067383 Z"/>
                    <path id="path57" fill="#f00000" stroke="none" d="M 4694.179199 798.012146 L 4853.294922 718.255249 L 5072.07959 718.255249 L 5072.07959 877.769043 L 4853.294922 877.769043 L 4694.179199 798.012146 Z"/>
                    <path id="path58" fill="#f00000" stroke="none" d="M 5489.759277 798.012146 L 5330.643066 877.769043 L 5111.858398 877.769043 L 5111.858398 718.255249 L 5330.643066 718.255249 L 5489.759277 798.012146 Z"/>
                </g>
            </g>
        </g>
        <g id="g13">
            <g id="g14">
                <g id="g15">
                    <path id="path59" fill="#f00000" stroke="none" d="M 7083.584473 80.199951 L 7043.805664 120.078491 L 7163.142578 239.713867 L 7381.927246 239.713867 L 7381.927246 120.078491 L 7342.147949 80.199951 L 7083.584473 80.199951 Z"/>
                    <path id="path60" fill="#f00000" stroke="none" d="M 7421.706055 239.713867 L 7640.490723 239.713867 L 7759.827637 120.078491 L 7720.04834 80.199951 L 7461.484863 80.199951 L 7421.706055 120.078491 L 7421.706055 239.713867 Z"/>
                    <path id="path61" fill="#f00000" stroke="none" d="M 7680.269531 279.592285 L 7799.606445 159.956909 L 7839.385742 199.835327 L 7839.385742 678.37677 L 7799.606445 758.133728 L 7680.269531 678.37677 L 7680.269531 279.592285 Z"/>
                    <path id="path62" fill="#f00000" stroke="none" d="M 7163.142578 1356.310547 L 7381.927246 1356.310547 L 7381.927246 1475.945801 L 7342.147949 1515.824341 L 7083.584473 1515.824341 L 7043.805664 1475.945801 L 7163.142578 1356.310547 Z"/>
                    <path id="path63" fill="#f00000" stroke="none" d="M 7421.706055 1356.310547 L 7640.490723 1356.310547 L 7759.827637 1475.945801 L 7720.04834 1515.824341 L 7461.484863 1515.824341 L 7421.706055 1475.945801 L 7421.706055 1356.310547 Z"/>
                    <path id="path64" fill="#f00000" stroke="none" d="M 7004.026367 1436.067383 L 6964.247559 1396.188965 L 6964.247559 917.647522 L 7004.026367 837.890625 L 7123.363281 917.647522 L 7123.363281 1316.432007 L 7004.026367 1436.067383 Z"/>
                    <path id="path65" fill="#f00000" stroke="none" d="M 7004.026367 798.012146 L 7163.142578 718.255249 L 7381.927246 718.255249 L 7381.927246 877.769043 L 7163.142578 877.769043 L 7004.026367 798.012146 Z"/>
                    <path id="path66" fill="#f00000" stroke="none" d="M 7799.606445 798.012146 L 7640.490723 877.769043 L 7421.706055 877.769043 L 7421.706055 718.255249 L 7640.490723 718.255249 L 7799.606445 798.012146 Z"/>
                </g>
            </g>
        </g>
        <g id="g16">
            <g id="g17">
                <g id="g18">
                    <path id="path67" fill="#f00000" stroke="none" d="M 8238.488281 80.199951 L 8198.708984 120.078491 L 8318.046875 239.713867 L 8536.831055 239.713867 L 8536.831055 120.078491 L 8497.051758 80.199951 L 8238.488281 80.199951 Z"/>
                    <path id="path68" fill="#f00000" stroke="none" d="M 8576.610352 239.713867 L 8795.394531 239.713867 L 8914.731445 120.078491 L 8874.952148 80.199951 L 8616.388672 80.199951 L 8576.610352 120.078491 L 8576.610352 239.713867 Z"/>
                    <path id="path69" fill="#f00000" stroke="none" d="M 8835.173828 279.592285 L 8954.510742 159.956909 L 8994.289063 199.835327 L 8994.289063 678.37677 L 8954.510742 758.133728 L 8835.173828 678.37677 L 8835.173828 279.592285 Z"/>
                    <path id="path70" fill="#f00000" stroke="none" d="M 8318.046875 1356.310547 L 8536.831055 1356.310547 L 8536.831055 1475.945801 L 8497.051758 1515.824341 L 8238.488281 1515.824341 L 8198.708984 1475.945801 L 8318.046875 1356.310547 Z"/>
                    <path id="path71" fill="#f00000" stroke="none" d="M 8576.610352 1356.310547 L 8795.394531 1356.310547 L 8914.731445 1475.945801 L 8874.952148 1515.824341 L 8616.388672 1515.824341 L 8576.610352 1475.945801 L 8576.610352 1356.310547 Z"/>
                    <path id="path72" fill="#f00000" stroke="none" d="M 8158.930176 1436.067383 L 8119.151367 1396.188965 L 8119.151367 917.647522 L 8158.930176 837.890625 L 8278.267578 917.647522 L 8278.267578 1316.432007 L 8158.930176 1436.067383 Z"/>
                    <path id="path73" fill="#f00000" stroke="none" d="M 8158.930176 798.012146 L 8318.046875 718.255249 L 8536.831055 718.255249 L 8536.831055 877.769043 L 8318.046875 877.769043 L 8158.930176 798.012146 Z"/>
                    <path id="path74" fill="#f00000" stroke="none" d="M 8954.510742 798.012146 L 8795.394531 877.769043 L 8576.610352 877.769043 L 8576.610352 718.255249 L 8795.394531 718.255249 L 8954.510742 798.012146 Z"/>
                </g>
            </g>
        </g>
        <g id="g19">
            <g id="g20">
                <g id="g21">
                    <path id="path75" fill="#f00000" stroke="none" d="M 5928.640625 84.187866 L 5888.861816 124.066284 L 6008.19873 243.70166 L 6226.983398 243.70166 L 6226.983398 124.066284 L 6187.20459 84.187866 L 5928.640625 84.187866 Z"/>
                    <path id="path76" fill="#f00000" stroke="none" d="M 6266.762207 243.70166 L 6485.546875 243.70166 L 6604.883789 124.066284 L 6565.10498 84.187866 L 6306.541504 84.187866 L 6266.762207 124.066284 L 6266.762207 243.70166 Z"/>
                    <path id="path77" fill="#f00000" stroke="none" d="M 6525.325684 283.580078 L 6644.663086 163.944702 L 6684.441895 203.823242 L 6684.441895 682.364624 L 6644.663086 762.121521 L 6525.325684 682.364624 L 6525.325684 283.580078 Z"/>
                    <path id="path78" fill="#f00000" stroke="none" d="M 6525.325684 921.635376 L 6644.663086 841.878479 L 6684.441895 921.635376 L 6684.441895 1400.176758 L 6644.663086 1440.055298 L 6525.325684 1320.419922 L 6525.325684 921.635376 Z"/>
                    <path id="path79" fill="#f00000" stroke="none" d="M 6008.19873 1360.29834 L 6226.983398 1360.29834 L 6226.983398 1479.933716 L 6187.20459 1519.812134 L 5928.640625 1519.812134 L 5888.861816 1479.933716 L 6008.19873 1360.29834 Z"/>
                    <path id="path80" fill="#f00000" stroke="none" d="M 6266.762207 1360.29834 L 6485.546875 1360.29834 L 6604.883789 1479.933716 L 6565.10498 1519.812134 L 6306.541504 1519.812134 L 6266.762207 1479.933716 L 6266.762207 1360.29834 Z"/>
                    <path id="path81" fill="#f00000" stroke="none" d="M 5849.083008 1440.055298 L 5809.303711 1400.176758 L 5809.303711 921.635376 L 5849.083008 841.878479 L 5968.419922 921.635376 L 5968.419922 1320.419922 L 5849.083008 1440.055298 Z"/>
                    <path id="path82" fill="#f00000" stroke="none" d="M 5849.083008 762.121521 L 5809.303711 682.364624 L 5809.303711 203.823242 L 5849.083008 163.944702 L 5968.419922 283.580078 L 5968.419922 682.364624 L 5849.083008 762.121521 Z"/>
                    <path id="path83" fill="#f00000" stroke="none" d="M 6366.209961 403.215454 L 6425.878418 283.580078 L 6485.546875 283.580078 L 6485.546875 482.972412 L 6346.320313 682.364624 L 6286.651855 682.364624 L 6366.209961 403.215454 Z"/>
                    <path id="path84" fill="#f00000" stroke="none" d="M 6147.425293 921.635376 L 6207.09375 921.635376 L 6127.535645 1200.784546 L 6067.867188 1320.419922 L 6008.19873 1320.419922 L 6008.19873 1121.027588 L 6147.425293 921.635376 Z"/>
                </g>
            </g>
        </g>
    </g>
    <g id="BAPC">
        <g id="Layer1-2">
            <g id="g22">
                <g id="g23">
                    <g id="g24">
                        <path id="path85" fill="#f5f5f5" stroke="none" visibility="hidden" d="M 208 80.199951 L 168 120.300049 L 288 240.599976 L 508 240.599976 L 508 120.300049 L 468 80.199951 L 208 80.199951 Z"/>
                        <path id="path86" fill="#f5f5f5" stroke="none" visibility="hidden" d="M 548 240.599976 L 768 240.599976 L 888 120.300049 L 848 80.199951 L 588 80.199951 L 548 120.300049 L 548 240.599976 Z"/>
                        <path id="path87" fill="#f5f5f5" stroke="none" visibility="hidden" d="M 808 280.699951 L 928 160.400024 L 968 200.5 L 968 681.700012 L 928 761.900024 L 808 681.700012 L 808 280.699951 Z"/>
                        <path id="path88" fill="#f5f5f5" stroke="none" visibility="hidden" d="M 808 922.299988 L 928 842.099976 L 968 922.299988 L 968 1403.5 L 928 1443.599976 L 808 1323.300049 L 808 922.299988 Z"/>
                        <path id="path89" fill="#f5f5f5" stroke="none" visibility="hidden" d="M 288 1363.400024 L 508 1363.400024 L 508 1483.699951 L 468 1523.800049 L 208 1523.800049 L 168 1483.699951 L 288 1363.400024 Z"/>
                        <path id="path90" fill="#f5f5f5" stroke="none" visibility="hidden" d="M 548 1363.400024 L 768 1363.400024 L 888 1483.699951 L 848 1523.800049 L 588 1523.800049 L 548 1483.699951 L 548 1363.400024 Z"/>
                        <path id="path91" fill="#f5f5f5" stroke="none" d="M 128 1443.599976 L 88 1403.5 L 88 922.299988 L 128 842.099976 L 248 922.299988 L 248 1323.300049 L 128 1443.599976 Z"/>
                        <path id="path92" fill="#f5f5f5" stroke="none" d="M 128 761.900024 L 88 681.700012 L 88 200.5 L 128 160.400024 L 248 280.699951 L 248 681.700012 L 128 761.900024 Z"/>
                        <path id="path93" fill="#f5f5f5" stroke="none" d="M 128 802 L 288 721.799988 L 508 721.799988 L 508 882.200012 L 288 882.200012 L 128 802 Z"/>
                        <path id="path94" fill="#f5f5f5" stroke="none" visibility="hidden" d="M 928 802 L 768 882.200012 L 548 882.200012 L 548 721.799988 L 768 721.799988 L 928 802 Z"/>
                        <path id="path95" fill="#f5f5f5" stroke="none" d="M 288 280.699951 L 348 280.699951 L 408 401 L 488 681.700012 L 428 681.700012 L 288 481.199951 L 288 280.699951 Z"/>
                        <path id="path96" fill="#f5f5f5" stroke="none" visibility="hidden" d="M 588 280.699951 L 588 401 L 528 681.700012 L 468 401 L 468 280.699951 L 588 280.699951 Z"/>
                        <path id="path97" fill="#f5f5f5" stroke="none" d="M 648 401 L 708 280.699951 L 768 280.699951 L 768 481.199951 L 628 681.700012 L 568 681.700012 L 648 401 Z"/>
                        <path id="path98" fill="#f5f5f5" stroke="none" d="M 428 922.299988 L 488 922.299988 L 408 1203 L 348 1323.300049 L 288 1323.300049 L 288 1122.800049 L 428 922.299988 Z"/>
                        <path id="path99" fill="#f5f5f5" stroke="none" visibility="hidden" d="M 528 922.299988 L 588 1203 L 588 1323.300049 L 468 1323.300049 L 468 1203 L 528 922.299988 Z"/>
                        <path id="path100" fill="#f5f5f5" stroke="none" d="M 568 922.299988 L 628 922.299988 L 768 1122.800049 L 768 1323.300049 L 708 1323.300049 L 648 1203 L 568 922.299988 Z"/>
                        <path id="path101" fill="#f5f5f5" stroke="none" d="M 976 1483.699951 C 976 1468.197388 963.463989 1455.630005 948 1455.630005 C 932.536011 1455.630005 920 1468.197388 920 1483.699951 C 920 1499.202637 932.536011 1511.77002 948 1511.77002 C 963.463989 1511.77002 976 1499.202637 976 1483.699951 Z"/>
                    </g>
                </g>
            </g>
            <g id="g25">
                <g id="g26">
                    <g id="g27">
                        <path id="path102" fill="#f5f5f5" stroke="none" visibility="hidden" d="M 1353.319946 80.199951 L 1313.319946 120.300049 L 1433.319946 240.599976 L 1653.319946 240.599976 L 1653.319946 120.300049 L 1613.319946 80.199951 L 1353.319946 80.199951 Z"/>
                        <path id="path103" fill="#f5f5f5" stroke="none" visibility="hidden" d="M 1693.319946 240.599976 L 1913.319946 240.599976 L 2033.319946 120.300049 L 1993.319946 80.199951 L 1733.319946 80.199951 L 1693.319946 120.300049 L 1693.319946 240.599976 Z"/>
                        <path id="path104" fill="#f5f5f5" stroke="none" visibility="hidden" d="M 1953.319946 280.699951 L 2073.320068 160.400024 L 2113.320068 200.5 L 2113.320068 681.700012 L 2073.320068 761.900024 L 1953.319946 681.700012 L 1953.319946 280.699951 Z"/>
                        <path id="path105" fill="#f5f5f5" stroke="none" visibility="hidden" d="M 1953.319946 922.299988 L 2073.320068 842.099976 L 2113.320068 922.299988 L 2113.320068 1403.5 L 2073.320068 1443.599976 L 1953.319946 1323.300049 L 1953.319946 922.299988 Z"/>
                        <path id="path106" fill="#f5f5f5" stroke="none" d="M 1433.319946 1363.400024 L 1653.319946 1363.400024 L 1653.319946 1483.699951 L 1613.319946 1523.800049 L 1353.319946 1523.800049 L 1313.319946 1483.699951 L 1433.319946 1363.400024 Z"/>
                        <path id="path107" fill="#f5f5f5" stroke="none" d="M 1693.319946 1363.400024 L 1913.319946 1363.400024 L 2033.319946 1483.699951 L 1993.319946 1523.800049 L 1733.319946 1523.800049 L 1693.319946 1483.699951 L 1693.319946 1363.400024 Z"/>
                        <path id="path108" fill="#f5f5f5" stroke="none" visibility="hidden" d="M 1273.319946 1443.599976 L 1233.319946 1403.5 L 1233.319946 922.299988 L 1273.319946 842.099976 L 1393.319946 922.299988 L 1393.319946 1323.300049 L 1273.319946 1443.599976 Z"/>
                        <path id="path109" fill="#f5f5f5" stroke="none" visibility="hidden" d="M 1273.319946 761.900024 L 1233.319946 681.700012 L 1233.319946 200.5 L 1273.319946 160.400024 L 1393.319946 280.699951 L 1393.319946 681.700012 L 1273.319946 761.900024 Z"/>
                        <path id="path110" fill="#f5f5f5" stroke="none" visibility="hidden" d="M 1273.319946 802 L 1433.319946 721.799988 L 1653.319946 721.799988 L 1653.319946 882.200012 L 1433.319946 882.200012 L 1273.319946 802 Z"/>
                        <path id="path111" fill="#f5f5f5" stroke="none" visibility="hidden" d="M 2073.320068 802 L 1913.319946 882.200012 L 1693.319946 882.200012 L 1693.319946 721.799988 L 1913.319946 721.799988 L 2073.320068 802 Z"/>
                        <path id="path112" fill="#f5f5f5" stroke="none" d="M 1433.319946 280.699951 L 1493.319946 280.699951 L 1553.319946 401 L 1633.319946 681.700012 L 1573.319946 681.700012 L 1433.319946 481.199951 L 1433.319946 280.699951 Z"/>
                        <path id="path113" fill="#f5f5f5" stroke="none" d="M 1733.319946 280.699951 L 1733.319946 401 L 1673.319946 681.700012 L 1613.319946 401 L 1613.319946 280.699951 L 1733.319946 280.699951 Z"/>
                        <path id="path114" fill="#f5f5f5" stroke="none" d="M 1793.319946 401 L 1853.319946 280.699951 L 1913.319946 280.699951 L 1913.319946 481.199951 L 1773.319946 681.700012 L 1713.319946 681.700012 L 1793.319946 401 Z"/>
                        <path id="path115" fill="#f5f5f5" stroke="none" d="M 1573.319946 922.299988 L 1633.319946 922.299988 L 1553.319946 1203 L 1493.319946 1323.300049 L 1433.319946 1323.300049 L 1433.319946 1122.800049 L 1573.319946 922.299988 Z"/>
                        <path id="path116" fill="#f5f5f5" stroke="none" d="M 1673.319946 922.299988 L 1733.319946 1203 L 1733.319946 1323.300049 L 1613.319946 1323.300049 L 1613.319946 1203 L 1673.319946 922.299988 Z"/>
                        <path id="path117" fill="#f5f5f5" stroke="none" d="M 1713.319946 922.299988 L 1773.319946 922.299988 L 1913.319946 1122.800049 L 1913.319946 1323.300049 L 1853.319946 1323.300049 L 1793.319946 1203 L 1713.319946 922.299988 Z"/>
                        <path id="path118" fill="#f5f5f5" stroke="none" d="M 2121.320068 1483.699951 C 2121.320068 1468.197388 2108.783936 1455.630005 2093.320068 1455.630005 C 2077.856201 1455.630005 2065.320068 1468.197388 2065.320068 1483.699951 C 2065.320068 1499.202637 2077.856201 1511.77002 2093.320068 1511.77002 C 2108.783936 1511.77002 2121.320068 1499.202637 2121.320068 1483.699951 Z"/>
                    </g>
                </g>
            </g>
            <g id="g28">
                <g id="g29">
                    <g id="g30">
                        <path id="path119" fill="#f5f5f5" stroke="none" visibility="hidden" d="M 2498.679932 80.199951 L 2458.679932 120.300049 L 2578.679932 240.599976 L 2798.679932 240.599976 L 2798.679932 120.300049 L 2758.679932 80.199951 L 2498.679932 80.199951 Z"/>
                        <path id="path120" fill="#f5f5f5" stroke="none" visibility="hidden" d="M 2838.679932 240.599976 L 3058.679932 240.599976 L 3178.679932 120.300049 L 3138.679932 80.199951 L 2878.679932 80.199951 L 2838.679932 120.300049 L 2838.679932 240.599976 Z"/>
                        <path id="path121" fill="#f5f5f5" stroke="none" visibility="hidden" d="M 3098.679932 280.699951 L 3218.679932 160.400024 L 3258.679932 200.5 L 3258.679932 681.700012 L 3218.679932 761.900024 L 3098.679932 681.700012 L 3098.679932 280.699951 Z"/>
                        <path id="path122" fill="#f5f5f5" stroke="none" d="M 3098.679932 922.299988 L 3218.679932 842.099976 L 3258.679932 922.299988 L 3258.679932 1403.5 L 3218.679932 1443.599976 L 3098.679932 1323.300049 L 3098.679932 922.299988 Z"/>
                        <path id="path123" fill="#f5f5f5" stroke="none" d="M 2578.679932 1363.400024 L 2798.679932 1363.400024 L 2798.679932 1483.699951 L 2758.679932 1523.800049 L 2498.679932 1523.800049 L 2458.679932 1483.699951 L 2578.679932 1363.400024 Z"/>
                        <path id="path124" fill="#f5f5f5" stroke="none" d="M 2838.679932 1363.400024 L 3058.679932 1363.400024 L 3178.679932 1483.699951 L 3138.679932 1523.800049 L 2878.679932 1523.800049 L 2838.679932 1483.699951 L 2838.679932 1363.400024 Z"/>
                        <path id="path125" fill="#f5f5f5" stroke="none" visibility="hidden" d="M 2418.679932 1443.599976 L 2378.679932 1403.5 L 2378.679932 922.299988 L 2418.679932 842.099976 L 2538.679932 922.299988 L 2538.679932 1323.300049 L 2418.679932 1443.599976 Z"/>
                        <path id="path126" fill="#f5f5f5" stroke="none" visibility="hidden" d="M 2418.679932 761.900024 L 2378.679932 681.700012 L 2378.679932 200.5 L 2418.679932 160.400024 L 2538.679932 280.699951 L 2538.679932 681.700012 L 2418.679932 761.900024 Z"/>
                        <path id="path127" fill="#f5f5f5" stroke="none" visibility="hidden" d="M 2418.679932 802 L 2578.679932 721.799988 L 2798.679932 721.799988 L 2798.679932 882.200012 L 2578.679932 882.200012 L 2418.679932 802 Z"/>
                        <path id="path128" fill="#f5f5f5" stroke="none" visibility="hidden" d="M 3218.679932 802 L 3058.679932 882.200012 L 2838.679932 882.200012 L 2838.679932 721.799988 L 3058.679932 721.799988 L 3218.679932 802 Z"/>
                        <path id="path129" fill="#f5f5f5" stroke="none" d="M 2578.679932 280.699951 L 2638.679932 280.699951 L 2698.679932 401 L 2778.679932 681.700012 L 2718.679932 681.700012 L 2578.679932 481.199951 L 2578.679932 280.699951 Z"/>
                        <path id="path130" fill="#f5f5f5" stroke="none" d="M 2878.679932 280.699951 L 2878.679932 401 L 2818.679932 681.700012 L 2758.679932 401 L 2758.679932 280.699951 L 2878.679932 280.699951 Z"/>
                        <path id="path131" fill="#f5f5f5" stroke="none" d="M 2938.679932 401 L 2998.679932 280.699951 L 3058.679932 280.699951 L 3058.679932 481.199951 L 2918.679932 681.700012 L 2858.679932 681.700012 L 2938.679932 401 Z"/>
                        <path id="path132" fill="#f5f5f5" stroke="none" d="M 2718.679932 922.299988 L 2778.679932 922.299988 L 2698.679932 1203 L 2638.679932 1323.300049 L 2578.679932 1323.300049 L 2578.679932 1122.800049 L 2718.679932 922.299988 Z"/>
                        <path id="path133" fill="#f5f5f5" stroke="none" d="M 2818.679932 922.299988 L 2878.679932 1203 L 2878.679932 1323.300049 L 2758.679932 1323.300049 L 2758.679932 1203 L 2818.679932 922.299988 Z"/>
                        <path id="path134" fill="#f5f5f5" stroke="none" d="M 2858.679932 922.299988 L 2918.679932 922.299988 L 3058.679932 1122.800049 L 3058.679932 1323.300049 L 2998.679932 1323.300049 L 2938.679932 1203 L 2858.679932 922.299988 Z"/>
                        <path id="path135" fill="#f5f5f5" stroke="none" d="M 3266.679932 1483.699951 C 3266.679932 1468.197388 3254.144043 1455.630005 3238.679932 1455.630005 C 3223.216064 1455.630005 3210.679932 1468.197388 3210.679932 1483.699951 C 3210.679932 1499.202637 3223.216064 1511.77002 3238.679932 1511.77002 C 3254.144043 1511.77002 3266.679932 1499.202637 3266.679932 1483.699951 Z"/>
                    </g>
                </g>
            </g>
            <g id="g31">
                <g id="g32">
                    <g id="g33">
                        <path id="path136" fill="#f5f5f5" stroke="none" visibility="hidden" d="M 3644 80.199951 L 3604 120.300049 L 3724 240.599976 L 3944 240.599976 L 3944 120.300049 L 3904 80.199951 L 3644 80.199951 Z"/>
                        <path id="path137" fill="#f5f5f5" stroke="none" visibility="hidden" d="M 3984 240.599976 L 4204 240.599976 L 4324 120.300049 L 4284 80.199951 L 4024 80.199951 L 3984 120.300049 L 3984 240.599976 Z"/>
                        <path id="path138" fill="#f5f5f5" stroke="none" d="M 4244 280.699951 L 4364 160.400024 L 4404 200.5 L 4404 681.700012 L 4364 761.900024 L 4244 681.700012 L 4244 280.699951 Z"/>
                        <path id="path139" fill="#f5f5f5" stroke="none" d="M 4244 922.299988 L 4364 842.099976 L 4404 922.299988 L 4404 1403.5 L 4364 1443.599976 L 4244 1323.300049 L 4244 922.299988 Z"/>
                        <path id="path140" fill="#f5f5f5" stroke="none" visibility="hidden" d="M 3724 1363.400024 L 3944 1363.400024 L 3944 1483.699951 L 3904 1523.800049 L 3644 1523.800049 L 3604 1483.699951 L 3724 1363.400024 Z"/>
                        <path id="path141" fill="#f5f5f5" stroke="none" visibility="hidden" d="M 3984 1363.400024 L 4204 1363.400024 L 4324 1483.699951 L 4284 1523.800049 L 4024 1523.800049 L 3984 1483.699951 L 3984 1363.400024 Z"/>
                        <path id="path142" fill="#f5f5f5" stroke="none" visibility="hidden" d="M 3564 1443.599976 L 3524 1403.5 L 3524 922.299988 L 3564 842.099976 L 3684 922.299988 L 3684 1323.300049 L 3564 1443.599976 Z"/>
                        <path id="path143" fill="#f5f5f5" stroke="none" visibility="hidden" d="M 3564 761.900024 L 3524 681.700012 L 3524 200.5 L 3564 160.400024 L 3684 280.699951 L 3684 681.700012 L 3564 761.900024 Z"/>
                        <path id="path144" fill="#f5f5f5" stroke="none" d="M 3564 802 L 3724 721.799988 L 3944 721.799988 L 3944 882.200012 L 3724 882.200012 L 3564 802 Z"/>
                        <path id="path145" fill="#f5f5f5" stroke="none" d="M 4364 802 L 4204 882.200012 L 3984 882.200012 L 3984 721.799988 L 4204 721.799988 L 4364 802 Z"/>
                        <path id="path146" fill="#f5f5f5" stroke="none" d="M 3724 280.699951 L 3784 280.699951 L 3844 401 L 3924 681.700012 L 3864 681.700012 L 3724 481.199951 L 3724 280.699951 Z"/>
                        <path id="path147" fill="#f5f5f5" stroke="none" d="M 4024 280.699951 L 4024 401 L 3964 681.700012 L 3904 401 L 3904 280.699951 L 4024 280.699951 Z"/>
                        <path id="path148" fill="#f5f5f5" stroke="none" d="M 4084 401 L 4144 280.699951 L 4204 280.699951 L 4204 481.199951 L 4064 681.700012 L 4004 681.700012 L 4084 401 Z"/>
                        <path id="path149" fill="#f5f5f5" stroke="none" d="M 3864 922.299988 L 3924 922.299988 L 3844 1203 L 3784 1323.300049 L 3724 1323.300049 L 3724 1122.800049 L 3864 922.299988 Z"/>
                        <path id="path150" fill="#f5f5f5" stroke="none" d="M 3964 922.299988 L 4024 1203 L 4024 1323.300049 L 3904 1323.300049 L 3904 1203 L 3964 922.299988 Z"/>
                        <path id="path151" fill="#f5f5f5" stroke="none" d="M 4004 922.299988 L 4064 922.299988 L 4204 1122.800049 L 4204 1323.300049 L 4144 1323.300049 L 4084 1203 L 4004 922.299988 Z"/>
                        <path id="path152" fill="#f5f5f5" stroke="none" d="M 4412 1483.699951 C 4412 1468.197388 4399.463867 1455.630005 4384 1455.630005 C 4368.536133 1455.630005 4356 1468.197388 4356 1483.699951 C 4356 1499.202637 4368.536133 1511.77002 4384 1511.77002 C 4399.463867 1511.77002 4412 1499.202637 4412 1483.699951 Z"/>
                    </g>
                </g>
            </g>
            <g id="g34">
                <g id="g35">
                    <g id="g36">
                        <path id="path153" fill="#f00000" stroke="none" d="M 208 80.199951 L 168 120.300049 L 288 240.599976 L 508 240.599976 L 508 120.300049 L 468 80.199951 L 208 80.199951 Z"/>
                        <path id="path154" fill="#f00000" stroke="none" d="M 548 240.599976 L 768 240.599976 L 888 120.300049 L 848 80.199951 L 588 80.199951 L 548 120.300049 L 548 240.599976 Z"/>
                        <path id="path155" fill="#f00000" stroke="none" d="M 808 280.699951 L 928 160.400024 L 968 200.5 L 968 681.700012 L 928 761.900024 L 808 681.700012 L 808 280.699951 Z"/>
                        <path id="path156" fill="#f00000" stroke="none" d="M 808 922.299988 L 928 842.099976 L 968 922.299988 L 968 1403.5 L 928 1443.599976 L 808 1323.300049 L 808 922.299988 Z"/>
                        <path id="path157" fill="#f00000" stroke="none" d="M 288 1363.400024 L 508 1363.400024 L 508 1483.699951 L 468 1523.800049 L 208 1523.800049 L 168 1483.699951 L 288 1363.400024 Z"/>
                        <path id="path158" fill="#f00000" stroke="none" d="M 548 1363.400024 L 768 1363.400024 L 888 1483.699951 L 848 1523.800049 L 588 1523.800049 L 548 1483.699951 L 548 1363.400024 Z"/>
                        <path id="path159" fill="#f00000" stroke="none" d="M 928 802 L 768 882.200012 L 548 882.200012 L 548 721.799988 L 768 721.799988 L 928 802 Z"/>
                        <path id="path160" fill="#f00000" stroke="none" d="M 588 280.699951 L 588 401 L 528 681.700012 L 468 401 L 468 280.699951 L 588 280.699951 Z"/>
                        <path id="path161" fill="#f00000" stroke="none" d="M 528 922.299988 L 588 1203 L 588 1323.300049 L 468 1323.300049 L 468 1203 L 528 922.299988 Z"/>
                    </g>
                </g>
            </g>
            <g id="g37">
                <g id="g38">
                    <g id="g39">
                        <path id="path162" fill="#f00000" stroke="none" d="M 1353.319946 80.199951 L 1313.319946 120.300049 L 1433.319946 240.599976 L 1653.319946 240.599976 L 1653.319946 120.300049 L 1613.319946 80.199951 L 1353.319946 80.199951 Z"/>
                        <path id="path163" fill="#f00000" stroke="none" d="M 1693.319946 240.599976 L 1913.319946 240.599976 L 2033.319946 120.300049 L 1993.319946 80.199951 L 1733.319946 80.199951 L 1693.319946 120.300049 L 1693.319946 240.599976 Z"/>
                        <path id="path164" fill="#f00000" stroke="none" d="M 1953.319946 280.699951 L 2073.320068 160.400024 L 2113.320068 200.5 L 2113.320068 681.700012 L 2073.320068 761.900024 L 1953.319946 681.700012 L 1953.319946 280.699951 Z"/>
                        <path id="path165" fill="#f00000" stroke="none" d="M 1953.319946 922.299988 L 2073.320068 842.099976 L 2113.320068 922.299988 L 2113.320068 1403.5 L 2073.320068 1443.599976 L 1953.319946 1323.300049 L 1953.319946 922.299988 Z"/>
                        <path id="path166" fill="#f00000" stroke="none" d="M 1273.319946 1443.599976 L 1233.319946 1403.5 L 1233.319946 922.299988 L 1273.319946 842.099976 L 1393.319946 922.299988 L 1393.319946 1323.300049 L 1273.319946 1443.599976 Z"/>
                        <path id="path167" fill="#f00000" stroke="none" d="M 1273.319946 761.900024 L 1233.319946 681.700012 L 1233.319946 200.5 L 1273.319946 160.400024 L 1393.319946 280.699951 L 1393.319946 681.700012 L 1273.319946 761.900024 Z"/>
                        <path id="path168" fill="#f00000" stroke="none" d="M 1273.319946 802 L 1433.319946 721.799988 L 1653.319946 721.799988 L 1653.319946 882.200012 L 1433.319946 882.200012 L 1273.319946 802 Z"/>
                        <path id="path169" fill="#f00000" stroke="none" d="M 2073.320068 802 L 1913.319946 882.200012 L 1693.319946 882.200012 L 1693.319946 721.799988 L 1913.319946 721.799988 L 2073.320068 802 Z"/>
                    </g>
                </g>
            </g>
            <g id="g40">
                <g id="g41">
                    <g id="g42">
                        <path id="path170" fill="#f00000" stroke="none" d="M 2498.679932 80.199951 L 2458.679932 120.300049 L 2578.679932 240.599976 L 2798.679932 240.599976 L 2798.679932 120.300049 L 2758.679932 80.199951 L 2498.679932 80.199951 Z"/>
                        <path id="path171" fill="#f00000" stroke="none" d="M 2838.679932 240.599976 L 3058.679932 240.599976 L 3178.679932 120.300049 L 3138.679932 80.199951 L 2878.679932 80.199951 L 2838.679932 120.300049 L 2838.679932 240.599976 Z"/>
                        <path id="path172" fill="#f00000" stroke="none" d="M 3098.679932 280.699951 L 3218.679932 160.400024 L 3258.679932 200.5 L 3258.679932 681.700012 L 3218.679932 761.900024 L 3098.679932 681.700012 L 3098.679932 280.699951 Z"/>
                        <path id="path173" fill="#f00000" stroke="none" d="M 2418.679932 1443.599976 L 2378.679932 1403.5 L 2378.679932 922.299988 L 2418.679932 842.099976 L 2538.679932 922.299988 L 2538.679932 1323.300049 L 2418.679932 1443.599976 Z"/>
                        <path id="path174" fill="#f00000" stroke="none" d="M 2418.679932 761.900024 L 2378.679932 681.700012 L 2378.679932 200.5 L 2418.679932 160.400024 L 2538.679932 280.699951 L 2538.679932 681.700012 L 2418.679932 761.900024 Z"/>
                        <path id="path175" fill="#f00000" stroke="none" d="M 2418.679932 802 L 2578.679932 721.799988 L 2798.679932 721.799988 L 2798.679932 882.200012 L 2578.679932 882.200012 L 2418.679932 802 Z"/>
                        <path id="path176" fill="#f00000" stroke="none" d="M 3218.679932 802 L 3058.679932 882.200012 L 2838.679932 882.200012 L 2838.679932 721.799988 L 3058.679932 721.799988 L 3218.679932 802 Z"/>
                    </g>
                </g>
            </g>
            <g id="g43">
                <g id="g44">
                    <g id="g45">
                        <path id="path177" fill="#f00000" stroke="none" d="M 3644 80.199951 L 3604 120.300049 L 3724 240.599976 L 3944 240.599976 L 3944 120.300049 L 3904 80.199951 L 3644 80.199951 Z"/>
                        <path id="path178" fill="#f00000" stroke="none" d="M 3984 240.599976 L 4204 240.599976 L 4324 120.300049 L 4284 80.199951 L 4024 80.199951 L 3984 120.300049 L 3984 240.599976 Z"/>
                        <path id="path179" fill="#f00000" stroke="none" d="M 3724 1363.400024 L 3944 1363.400024 L 3944 1483.699951 L 3904 1523.800049 L 3644 1523.800049 L 3604 1483.699951 L 3724 1363.400024 Z"/>
                        <path id="path180" fill="#f00000" stroke="none" d="M 3984 1363.400024 L 4204 1363.400024 L 4324 1483.699951 L 4284 1523.800049 L 4024 1523.800049 L 3984 1483.699951 L 3984 1363.400024 Z"/>
                        <path id="path181" fill="#f00000" stroke="none" d="M 3564 1443.599976 L 3524 1403.5 L 3524 922.299988 L 3564 842.099976 L 3684 922.299988 L 3684 1323.300049 L 3564 1443.599976 Z"/>
                        <path id="path182" fill="#f00000" stroke="none" d="M 3564 761.900024 L 3524 681.700012 L 3524 200.5 L 3564 160.400024 L 3684 280.699951 L 3684 681.700012 L 3564 761.900024 Z"/>
                    </g>
                </g>
            </g>
        </g>
    </g>
</svg>
